<svg width="202" height="195" viewBox="0 0 202 195" fill="none" xmlns="http://www.w3.org/2000/svg">
<path d="M38.5 43.8572H22.4286C10.5939 43.8572 1 34.2633 1 22.4286C1 10.5939 10.5939 1 22.4286 1H179.571C191.406 1 201 10.5939 201 22.4286C201 34.2633 191.406 43.8572 179.571 43.8572H163.5C142.789 43.8572 126 60.6465 126 81.3571V168.857C126 182.664 114.807 193.857 101 193.857C87.1929 193.857 76 182.664 76 168.857V81.3572C76 60.6465 59.2107 43.8572 38.5 43.8572Z" fill="url(#paint0_linear_1_25)"/>
<path d="M38.5 43.8572H22.4286C10.5939 43.8572 1 34.2633 1 22.4286C1 10.5939 10.5939 1 22.4286 1H179.571C191.406 1 201 10.5939 201 22.4286C201 34.2633 191.406 43.8572 179.571 43.8572H163.5C142.789 43.8572 126 60.6465 126 81.3571V168.857C126 182.664 114.807 193.857 101 193.857C87.1929 193.857 76 182.664 76 168.857V81.3572C76 60.6465 59.2107 43.8572 38.5 43.8572Z" fill="url(#paint1_linear_1_25)" fill-opacity="0.8"/>
<path d="M38.5 43.8572H22.4286C10.5939 43.8572 1 34.2633 1 22.4286C1 10.5939 10.5939 1 22.4286 1H179.571C191.406 1 201 10.5939 201 22.4286C201 34.2633 191.406 43.8572 179.571 43.8572H163.5C142.789 43.8572 126 60.6465 126 81.3571V168.857C126 182.664 114.807 193.857 101 193.857C87.1929 193.857 76 182.664 76 168.857V81.3572C76 60.6465 59.2107 43.8572 38.5 43.8572Z" fill="url(#paint2_linear_1_25)" fill-opacity="0.6"/>
<path d="M38.5 43.8572H22.4286C10.5939 43.8572 1 34.2633 1 22.4286C1 10.5939 10.5939 1 22.4286 1H179.571C191.406 1 201 10.5939 201 22.4286C201 34.2633 191.406 43.8572 179.571 43.8572H163.5C142.789 43.8572 126 60.6465 126 81.3571V168.857C126 182.664 114.807 193.857 101 193.857C87.1929 193.857 76 182.664 76 168.857V81.3572C76 60.6465 59.2107 43.8572 38.5 43.8572Z" fill="url(#paint3_linear_1_25)" fill-opacity="0.2"/>
<path d="M38.5 43.8572H22.4286C10.5939 43.8572 1 34.2633 1 22.4286C1 10.5939 10.5939 1 22.4286 1H179.571C191.406 1 201 10.5939 201 22.4286C201 34.2633 191.406 43.8572 179.571 43.8572H163.5C142.789 43.8572 126 60.6465 126 81.3571V168.857C126 182.664 114.807 193.857 101 193.857C87.1929 193.857 76 182.664 76 168.857V81.3572C76 60.6465 59.2107 43.8572 38.5 43.8572Z" stroke="black" stroke-width="2"/>
<defs>
<linearGradient id="paint0_linear_1_25" x1="101" y1="1" x2="101" y2="193.857" gradientUnits="userSpaceOnUse">
<stop offset="0.00285269" stop-color="#FF0000"/>
<stop offset="1" stop-color="#FC9C2B"/>
</linearGradient>
<linearGradient id="paint1_linear_1_25" x1="201" y1="21.7143" x2="1" y2="21.7143" gradientUnits="userSpaceOnUse">
<stop stop-color="#48A528"/>
<stop offset="1" stop-color="#31D097"/>
</linearGradient>
<linearGradient id="paint2_linear_1_25" x1="151.714" y1="18.8571" x2="101" y2="101" gradientUnits="userSpaceOnUse">
<stop stop-color="#29B0FC"/>
<stop offset="1" stop-color="#944CEF"/>
</linearGradient>
<linearGradient id="paint3_linear_1_25" x1="18.8571" y1="11" x2="101" y2="103.143" gradientUnits="userSpaceOnUse">
<stop stop-color="#720453"/>
<stop offset="0.5" stop-color="#FF39C8" stop-opacity="0"/>
<stop offset="1" stop-color="#FF32A1"/>
</linearGradient>
</defs>
</svg>
