<svg width="2500" height="1545" viewBox="0 0 2500 1545" fill="none" xmlns="http://www.w3.org/2000/svg">
<rect width="1920" height="1080" fill="#376FFF"/>
<rect width="1920" height="72" fill="#272592"/>
<circle cx="47" cy="36" r="20" fill="#FF5951"/>
<circle cx="114" cy="36" r="20" fill="#FFBC2D"/>
<circle cx="181" cy="36" r="20" fill="#5EB16C"/>
<path d="M857.716 22.12L848.636 39.48V50H844.996V39.48L835.876 22.12H839.916L846.796 36.24L853.676 22.12H857.716ZM872.716 50.36C870.662 50.36 868.796 49.8933 867.116 48.96C865.462 48.0267 864.156 46.7067 863.196 45C862.262 43.2667 861.796 41.2667 861.796 39C861.796 36.76 862.276 34.7867 863.236 33.08C864.222 31.3467 865.556 30.0267 867.236 29.12C868.916 28.1867 870.796 27.72 872.876 27.72C874.956 27.72 876.836 28.1867 878.516 29.12C880.196 30.0267 881.516 31.3333 882.476 33.04C883.462 34.7467 883.956 36.7333 883.956 39C883.956 41.2667 883.449 43.2667 882.436 45C881.449 46.7067 880.102 48.0267 878.396 48.96C876.689 49.8933 874.796 50.36 872.716 50.36ZM872.716 47.16C874.022 47.16 875.249 46.8533 876.396 46.24C877.542 45.6267 878.462 44.7067 879.156 43.48C879.876 42.2533 880.236 40.76 880.236 39C880.236 37.24 879.889 35.7467 879.196 34.52C878.502 33.2933 877.596 32.3867 876.476 31.8C875.356 31.1867 874.142 30.88 872.836 30.88C871.502 30.88 870.276 31.1867 869.156 31.8C868.062 32.3867 867.182 33.2933 866.516 34.52C865.849 35.7467 865.516 37.24 865.516 39C865.516 40.7867 865.836 42.2933 866.476 43.52C867.142 44.7467 868.022 45.6667 869.116 46.28C870.209 46.8667 871.409 47.16 872.716 47.16ZM909.782 28.08V50H906.142V46.76C905.448 47.88 904.475 48.76 903.222 49.4C901.995 50.0133 900.635 50.32 899.142 50.32C897.435 50.32 895.902 49.9733 894.542 49.28C893.182 48.56 892.102 47.4933 891.302 46.08C890.528 44.6667 890.142 42.9467 890.142 40.92V28.08H893.742V40.44C893.742 42.6 894.288 44.2667 895.382 45.44C896.475 46.5867 897.968 47.16 899.862 47.16C901.808 47.16 903.342 46.56 904.462 45.36C905.582 44.16 906.142 42.4133 906.142 40.12V28.08H909.782ZM921.168 31.64C921.808 30.3867 922.714 29.4133 923.888 28.72C925.088 28.0267 926.541 27.68 928.248 27.68V31.44H927.288C923.208 31.44 921.168 33.6533 921.168 38.08V50H917.528V28.08H921.168V31.64ZM954.994 22.12C958.034 22.12 960.66 22.6933 962.874 23.84C965.114 24.96 966.82 26.5733 967.994 28.68C969.194 30.7867 969.794 33.2667 969.794 36.12C969.794 38.9733 969.194 41.4533 967.994 43.56C966.82 45.64 965.114 47.24 962.874 48.36C960.66 49.4533 958.034 50 954.994 50H946.314V22.12H954.994ZM954.994 47C958.594 47 961.34 46.0533 963.234 44.16C965.127 42.24 966.074 39.56 966.074 36.12C966.074 32.6533 965.114 29.9467 963.194 28C961.3 26.0533 958.567 25.08 954.994 25.08H949.954V47H954.994ZM979.835 31.64C980.475 30.3867 981.382 29.4133 982.555 28.72C983.755 28.0267 985.208 27.68 986.915 27.68V31.44H985.955C981.875 31.44 979.835 33.6533 979.835 38.08V50H976.195V28.08H979.835V31.64ZM1012.72 38.2C1012.72 38.8933 1012.68 39.6267 1012.6 40.4H995.077C995.21 42.56 995.943 44.2533 997.277 45.48C998.637 46.68 1000.28 47.28 1002.2 47.28C1003.77 47.28 1005.08 46.92 1006.12 46.2C1007.18 45.4533 1007.93 44.4667 1008.36 43.24H1012.28C1011.69 45.3467 1010.52 47.0667 1008.76 48.4C1007 49.7067 1004.81 50.36 1002.2 50.36C1000.12 50.36 998.25 49.8933 996.597 48.96C994.97 48.0267 993.69 46.7067 992.757 45C991.823 43.2667 991.357 41.2667 991.357 39C991.357 36.7333 991.81 34.7467 992.717 33.04C993.623 31.3333 994.89 30.0267 996.517 29.12C998.17 28.1867 1000.06 27.72 1002.2 27.72C1004.28 27.72 1006.12 28.1733 1007.72 29.08C1009.32 29.9867 1010.54 31.24 1011.4 32.84C1012.28 34.4133 1012.72 36.2 1012.72 38.2ZM1008.96 37.44C1008.96 36.0533 1008.65 34.8667 1008.04 33.88C1007.42 32.8667 1006.58 32.1067 1005.52 31.6C1004.48 31.0667 1003.32 30.8 1002.04 30.8C1000.2 30.8 998.623 31.3867 997.317 32.56C996.037 33.7333 995.303 35.36 995.117 37.44H1008.96ZM1017.76 38.96C1017.76 36.72 1018.21 34.76 1019.12 33.08C1020.03 31.3733 1021.27 30.0533 1022.84 29.12C1024.44 28.1867 1026.21 27.72 1028.16 27.72C1030.08 27.72 1031.75 28.1333 1033.16 28.96C1034.57 29.7867 1035.63 30.8267 1036.32 32.08V28.08H1040V50H1036.32V45.92C1035.6 47.2 1034.52 48.2667 1033.08 49.12C1031.67 49.9467 1030.01 50.36 1028.12 50.36C1026.17 50.36 1024.41 49.88 1022.84 48.92C1021.27 47.96 1020.03 46.6133 1019.12 44.88C1018.21 43.1467 1017.76 41.1733 1017.76 38.96ZM1036.32 39C1036.32 37.3467 1035.99 35.9067 1035.32 34.68C1034.65 33.4533 1033.75 32.52 1032.6 31.88C1031.48 31.2133 1030.24 30.88 1028.88 30.88C1027.52 30.88 1026.28 31.2 1025.16 31.84C1024.04 32.48 1023.15 33.4133 1022.48 34.64C1021.81 35.8667 1021.48 37.3067 1021.48 38.96C1021.48 40.64 1021.81 42.1067 1022.48 43.36C1023.15 44.5867 1024.04 45.5333 1025.16 46.2C1026.28 46.84 1027.52 47.16 1028.88 47.16C1030.24 47.16 1031.48 46.84 1032.6 46.2C1033.75 45.5333 1034.65 44.5867 1035.32 43.36C1035.99 42.1067 1036.32 40.6533 1036.32 39ZM1074.11 27.68C1075.82 27.68 1077.34 28.04 1078.67 28.76C1080.01 29.4533 1081.06 30.5067 1081.83 31.92C1082.61 33.3333 1082.99 35.0533 1082.99 37.08V50H1079.39V37.6C1079.39 35.4133 1078.85 33.7467 1077.75 32.6C1076.69 31.4267 1075.23 30.84 1073.39 30.84C1071.5 30.84 1069.99 31.4533 1068.87 32.68C1067.75 33.88 1067.19 35.6267 1067.19 37.92V50H1063.59V37.6C1063.59 35.4133 1063.05 33.7467 1061.95 32.6C1060.89 31.4267 1059.43 30.84 1057.59 30.84C1055.7 30.84 1054.19 31.4533 1053.07 32.68C1051.95 33.88 1051.39 35.6267 1051.39 37.92V50H1047.75V28.08H1051.39V31.24C1052.11 30.0933 1053.07 29.2133 1054.27 28.6C1055.5 27.9867 1056.85 27.68 1058.31 27.68C1060.15 27.68 1061.78 28.0933 1063.19 28.92C1064.61 29.7467 1065.66 30.96 1066.35 32.56C1066.97 31.0133 1067.98 29.8133 1069.39 28.96C1070.81 28.1067 1072.38 27.68 1074.11 27.68Z" fill="black"/>
<rect width="1920" height="1080" transform="translate(145 120)" fill="#24EEBD"/>
<rect x="145" y="120" width="1920" height="72" fill="#1F8D73"/>
<circle cx="192" cy="156" r="20" fill="#FF5951"/>
<circle cx="259" cy="156" r="20" fill="#FFBC2D"/>
<circle cx="326" cy="156" r="20" fill="#5EB16C"/>
<path d="M981.918 142.12L972.838 159.48V170H969.198V159.48L960.078 142.12H964.118L970.998 156.24L977.878 142.12H981.918ZM996.917 170.36C994.864 170.36 992.997 169.893 991.317 168.96C989.664 168.027 988.357 166.707 987.397 165C986.464 163.267 985.997 161.267 985.997 159C985.997 156.76 986.477 154.787 987.437 153.08C988.424 151.347 989.757 150.027 991.437 149.12C993.117 148.187 994.997 147.72 997.077 147.72C999.157 147.72 1001.04 148.187 1002.72 149.12C1004.4 150.027 1005.72 151.333 1006.68 153.04C1007.66 154.747 1008.16 156.733 1008.16 159C1008.16 161.267 1007.65 163.267 1006.64 165C1005.65 166.707 1004.3 168.027 1002.6 168.96C1000.89 169.893 998.997 170.36 996.917 170.36ZM996.917 167.16C998.224 167.16 999.451 166.853 1000.6 166.24C1001.74 165.627 1002.66 164.707 1003.36 163.48C1004.08 162.253 1004.44 160.76 1004.44 159C1004.44 157.24 1004.09 155.747 1003.4 154.52C1002.7 153.293 1001.8 152.387 1000.68 151.8C999.557 151.187 998.344 150.88 997.037 150.88C995.704 150.88 994.477 151.187 993.357 151.8C992.264 152.387 991.384 153.293 990.717 154.52C990.051 155.747 989.717 157.24 989.717 159C989.717 160.787 990.037 162.293 990.677 163.52C991.344 164.747 992.224 165.667 993.317 166.28C994.411 166.867 995.611 167.16 996.917 167.16ZM1033.98 148.08V170H1030.34V166.76C1029.65 167.88 1028.68 168.76 1027.42 169.4C1026.2 170.013 1024.84 170.32 1023.34 170.32C1021.64 170.32 1020.1 169.973 1018.74 169.28C1017.38 168.56 1016.3 167.493 1015.5 166.08C1014.73 164.667 1014.34 162.947 1014.34 160.92V148.08H1017.94V160.44C1017.94 162.6 1018.49 164.267 1019.58 165.44C1020.68 166.587 1022.17 167.16 1024.06 167.16C1026.01 167.16 1027.54 166.56 1028.66 165.36C1029.78 164.16 1030.34 162.413 1030.34 160.12V148.08H1033.98ZM1045.37 151.64C1046.01 150.387 1046.92 149.413 1048.09 148.72C1049.29 148.027 1050.74 147.68 1052.45 147.68V151.44H1051.49C1047.41 151.44 1045.37 153.653 1045.37 158.08V170H1041.73V148.08H1045.37V151.64ZM1084.48 155.64C1085.49 155.8 1086.41 156.213 1087.24 156.88C1088.09 157.547 1088.76 158.373 1089.24 159.36C1089.74 160.347 1090 161.4 1090 162.52C1090 163.933 1089.64 165.213 1088.92 166.36C1088.2 167.48 1087.14 168.373 1085.76 169.04C1084.4 169.68 1082.78 170 1080.92 170H1070.52V142.12H1080.52C1082.41 142.12 1084.02 142.44 1085.36 143.08C1086.69 143.693 1087.69 144.533 1088.36 145.6C1089.02 146.667 1089.36 147.867 1089.36 149.2C1089.36 150.853 1088.9 152.227 1088 153.32C1087.12 154.387 1085.94 155.16 1084.48 155.64ZM1074.16 154.16H1080.28C1081.98 154.16 1083.3 153.76 1084.24 152.96C1085.17 152.16 1085.64 151.053 1085.64 149.64C1085.64 148.227 1085.17 147.12 1084.24 146.32C1083.3 145.52 1081.96 145.12 1080.2 145.12H1074.16V154.16ZM1080.6 167C1082.41 167 1083.82 166.573 1084.84 165.72C1085.85 164.867 1086.36 163.68 1086.36 162.16C1086.36 160.613 1085.82 159.4 1084.76 158.52C1083.69 157.613 1082.26 157.16 1080.48 157.16H1074.16V167H1080.6ZM1116.09 148.08V170H1112.45V166.76C1111.75 167.88 1110.78 168.76 1109.53 169.4C1108.3 170.013 1106.94 170.32 1105.45 170.32C1103.74 170.32 1102.21 169.973 1100.85 169.28C1099.49 168.56 1098.41 167.493 1097.61 166.08C1096.83 164.667 1096.45 162.947 1096.45 160.92V148.08H1100.05V160.44C1100.05 162.6 1100.59 164.267 1101.69 165.44C1102.78 166.587 1104.27 167.16 1106.17 167.16C1108.11 167.16 1109.65 166.56 1110.77 165.36C1111.89 164.16 1112.45 162.413 1112.45 160.12V148.08H1116.09ZM1131.59 170.36C1129.91 170.36 1128.41 170.08 1127.07 169.52C1125.74 168.933 1124.69 168.133 1123.91 167.12C1123.14 166.08 1122.71 164.893 1122.63 163.56H1126.39C1126.5 164.653 1127.01 165.547 1127.91 166.24C1128.85 166.933 1130.06 167.28 1131.55 167.28C1132.94 167.28 1134.03 166.973 1134.83 166.36C1135.63 165.747 1136.03 164.973 1136.03 164.04C1136.03 163.08 1135.61 162.373 1134.75 161.92C1133.9 161.44 1132.58 160.973 1130.79 160.52C1129.17 160.093 1127.83 159.667 1126.79 159.24C1125.78 158.787 1124.9 158.133 1124.15 157.28C1123.43 156.4 1123.07 155.253 1123.07 153.84C1123.07 152.72 1123.41 151.693 1124.07 150.76C1124.74 149.827 1125.69 149.093 1126.91 148.56C1128.14 148 1129.54 147.72 1131.11 147.72C1133.54 147.72 1135.5 148.333 1136.99 149.56C1138.49 150.787 1139.29 152.467 1139.39 154.6H1135.75C1135.67 153.453 1135.21 152.533 1134.35 151.84C1133.53 151.147 1132.41 150.8 1130.99 150.8C1129.69 150.8 1128.65 151.08 1127.87 151.64C1127.1 152.2 1126.71 152.933 1126.71 153.84C1126.71 154.56 1126.94 155.16 1127.39 155.64C1127.87 156.093 1128.46 156.467 1129.15 156.76C1129.87 157.027 1130.86 157.333 1132.11 157.68C1133.69 158.107 1134.97 158.533 1135.95 158.96C1136.94 159.36 1137.78 159.973 1138.47 160.8C1139.19 161.627 1139.57 162.707 1139.59 164.04C1139.59 165.24 1139.26 166.32 1138.59 167.28C1137.93 168.24 1136.98 169 1135.75 169.56C1134.55 170.093 1133.17 170.36 1131.59 170.36ZM1148.21 144.52C1147.52 144.52 1146.93 144.28 1146.45 143.8C1145.97 143.32 1145.73 142.733 1145.73 142.04C1145.73 141.347 1145.97 140.76 1146.45 140.28C1146.93 139.8 1147.52 139.56 1148.21 139.56C1148.88 139.56 1149.44 139.8 1149.89 140.28C1150.37 140.76 1150.61 141.347 1150.61 142.04C1150.61 142.733 1150.37 143.32 1149.89 143.8C1149.44 144.28 1148.88 144.52 1148.21 144.52ZM1149.97 148.08V170H1146.33V148.08H1149.97ZM1168.45 147.68C1171.12 147.68 1173.28 148.493 1174.93 150.12C1176.59 151.72 1177.41 154.04 1177.41 157.08V170H1173.81V157.6C1173.81 155.413 1173.27 153.747 1172.17 152.6C1171.08 151.427 1169.59 150.84 1167.69 150.84C1165.77 150.84 1164.24 151.44 1163.09 152.64C1161.97 153.84 1161.41 155.587 1161.41 157.88V170H1157.77V148.08H1161.41V151.2C1162.13 150.08 1163.11 149.213 1164.33 148.6C1165.59 147.987 1166.96 147.68 1168.45 147.68ZM1204.96 158.2C1204.96 158.893 1204.92 159.627 1204.84 160.4H1187.32C1187.45 162.56 1188.19 164.253 1189.52 165.48C1190.88 166.68 1192.52 167.28 1194.44 167.28C1196.01 167.28 1197.32 166.92 1198.36 166.2C1199.43 165.453 1200.17 164.467 1200.6 163.24H1204.52C1203.93 165.347 1202.76 167.067 1201 168.4C1199.24 169.707 1197.05 170.36 1194.44 170.36C1192.36 170.36 1190.49 169.893 1188.84 168.96C1187.21 168.027 1185.93 166.707 1185 165C1184.07 163.267 1183.6 161.267 1183.6 159C1183.6 156.733 1184.05 154.747 1184.96 153.04C1185.87 151.333 1187.13 150.027 1188.76 149.12C1190.41 148.187 1192.31 147.72 1194.44 147.72C1196.52 147.72 1198.36 148.173 1199.96 149.08C1201.56 149.987 1202.79 151.24 1203.64 152.84C1204.52 154.413 1204.96 156.2 1204.96 158.2ZM1201.2 157.44C1201.2 156.053 1200.89 154.867 1200.28 153.88C1199.67 152.867 1198.83 152.107 1197.76 151.6C1196.72 151.067 1195.56 150.8 1194.28 150.8C1192.44 150.8 1190.87 151.387 1189.56 152.56C1188.28 153.733 1187.55 155.36 1187.36 157.44H1201.2ZM1219.13 170.36C1217.45 170.36 1215.94 170.08 1214.61 169.52C1213.27 168.933 1212.22 168.133 1211.45 167.12C1210.67 166.08 1210.25 164.893 1210.17 163.56H1213.93C1214.03 164.653 1214.54 165.547 1215.45 166.24C1216.38 166.933 1217.59 167.28 1219.09 167.28C1220.47 167.28 1221.57 166.973 1222.37 166.36C1223.17 165.747 1223.57 164.973 1223.57 164.04C1223.57 163.08 1223.14 162.373 1222.29 161.92C1221.43 161.44 1220.11 160.973 1218.33 160.52C1216.7 160.093 1215.37 159.667 1214.33 159.24C1213.31 158.787 1212.43 158.133 1211.69 157.28C1210.97 156.4 1210.61 155.253 1210.61 153.84C1210.61 152.72 1210.94 151.693 1211.61 150.76C1212.27 149.827 1213.22 149.093 1214.45 148.56C1215.67 148 1217.07 147.72 1218.65 147.72C1221.07 147.72 1223.03 148.333 1224.53 149.56C1226.02 150.787 1226.82 152.467 1226.93 154.6H1223.29C1223.21 153.453 1222.74 152.533 1221.89 151.84C1221.06 151.147 1219.94 150.8 1218.53 150.8C1217.22 150.8 1216.18 151.08 1215.41 151.64C1214.63 152.2 1214.25 152.933 1214.25 153.84C1214.25 154.56 1214.47 155.16 1214.93 155.64C1215.41 156.093 1215.99 156.467 1216.69 156.76C1217.41 157.027 1218.39 157.333 1219.65 157.68C1221.22 158.107 1222.5 158.533 1223.49 158.96C1224.47 159.36 1225.31 159.973 1226.01 160.8C1226.73 161.627 1227.1 162.707 1227.13 164.04C1227.13 165.24 1226.79 166.32 1226.13 167.28C1225.46 168.24 1224.51 169 1223.29 169.56C1222.09 170.093 1220.7 170.36 1219.13 170.36ZM1241.62 170.36C1239.94 170.36 1238.44 170.08 1237.1 169.52C1235.77 168.933 1234.72 168.133 1233.94 167.12C1233.17 166.08 1232.74 164.893 1232.66 163.56H1236.42C1236.53 164.653 1237.04 165.547 1237.94 166.24C1238.88 166.933 1240.09 167.28 1241.58 167.28C1242.97 167.28 1244.06 166.973 1244.86 166.36C1245.66 165.747 1246.06 164.973 1246.06 164.04C1246.06 163.08 1245.64 162.373 1244.78 161.92C1243.93 161.44 1242.61 160.973 1240.82 160.52C1239.2 160.093 1237.86 159.667 1236.82 159.24C1235.81 158.787 1234.93 158.133 1234.18 157.28C1233.46 156.4 1233.1 155.253 1233.1 153.84C1233.1 152.72 1233.44 151.693 1234.1 150.76C1234.77 149.827 1235.72 149.093 1236.94 148.56C1238.17 148 1239.57 147.72 1241.14 147.72C1243.57 147.72 1245.53 148.333 1247.02 149.56C1248.52 150.787 1249.32 152.467 1249.42 154.6H1245.78C1245.7 153.453 1245.24 152.533 1244.38 151.84C1243.56 151.147 1242.44 150.8 1241.02 150.8C1239.72 150.8 1238.68 151.08 1237.9 151.64C1237.13 152.2 1236.74 152.933 1236.74 153.84C1236.74 154.56 1236.97 155.16 1237.42 155.64C1237.9 156.093 1238.49 156.467 1239.18 156.76C1239.9 157.027 1240.89 157.333 1242.14 157.68C1243.72 158.107 1245 158.533 1245.98 158.96C1246.97 159.36 1247.81 159.973 1248.5 160.8C1249.22 161.627 1249.6 162.707 1249.62 164.04C1249.62 165.24 1249.29 166.32 1248.62 167.28C1247.96 168.24 1247.01 169 1245.78 169.56C1244.58 170.093 1243.2 170.36 1241.62 170.36Z" fill="black"/>
<rect width="1920" height="1080" transform="translate(290 235)" fill="#B2E030"/>
<rect x="290" y="235" width="1920" height="72" fill="#738E24"/>
<circle cx="337" cy="271" r="20" fill="#FF5951"/>
<circle cx="404" cy="271" r="20" fill="#FFBC2D"/>
<circle cx="471" cy="271" r="20" fill="#5EB16C"/>
<path d="M1112.75 257.12L1103.67 274.48V285H1100.03V274.48L1090.91 257.12H1094.95L1101.83 271.24L1108.71 257.12H1112.75ZM1127.75 285.36C1125.69 285.36 1123.83 284.893 1122.15 283.96C1120.49 283.027 1119.19 281.707 1118.23 280C1117.29 278.267 1116.83 276.267 1116.83 274C1116.83 271.76 1117.31 269.787 1118.27 268.08C1119.25 266.347 1120.59 265.027 1122.27 264.12C1123.95 263.187 1125.83 262.72 1127.91 262.72C1129.99 262.72 1131.87 263.187 1133.55 264.12C1135.23 265.027 1136.55 266.333 1137.51 268.04C1138.49 269.747 1138.99 271.733 1138.99 274C1138.99 276.267 1138.48 278.267 1137.47 280C1136.48 281.707 1135.13 283.027 1133.43 283.96C1131.72 284.893 1129.83 285.36 1127.75 285.36ZM1127.75 282.16C1129.05 282.16 1130.28 281.853 1131.43 281.24C1132.57 280.627 1133.49 279.707 1134.19 278.48C1134.91 277.253 1135.27 275.76 1135.27 274C1135.27 272.24 1134.92 270.747 1134.23 269.52C1133.53 268.293 1132.63 267.387 1131.51 266.8C1130.39 266.187 1129.17 265.88 1127.87 265.88C1126.53 265.88 1125.31 266.187 1124.19 266.8C1123.09 267.387 1122.21 268.293 1121.55 269.52C1120.88 270.747 1120.55 272.24 1120.55 274C1120.55 275.787 1120.87 277.293 1121.51 278.52C1122.17 279.747 1123.05 280.667 1124.15 281.28C1125.24 281.867 1126.44 282.16 1127.75 282.16ZM1164.81 263.08V285H1161.17V281.76C1160.48 282.88 1159.51 283.76 1158.25 284.4C1157.03 285.013 1155.67 285.32 1154.17 285.32C1152.47 285.32 1150.93 284.973 1149.57 284.28C1148.21 283.56 1147.13 282.493 1146.33 281.08C1145.56 279.667 1145.17 277.947 1145.17 275.92V263.08H1148.77V275.44C1148.77 277.6 1149.32 279.267 1150.41 280.44C1151.51 281.587 1153 282.16 1154.89 282.16C1156.84 282.16 1158.37 281.56 1159.49 280.36C1160.61 279.16 1161.17 277.413 1161.17 275.12V263.08H1164.81ZM1176.2 266.64C1176.84 265.387 1177.75 264.413 1178.92 263.72C1180.12 263.027 1181.57 262.68 1183.28 262.68V266.44H1182.32C1178.24 266.44 1176.2 268.653 1176.2 273.08V285H1172.56V263.08H1176.2V266.64ZM1210.18 285.28C1208.34 285.28 1206.69 284.96 1205.22 284.32C1203.78 283.653 1202.65 282.747 1201.82 281.6C1201 280.427 1200.57 279.08 1200.54 277.56H1204.42C1204.56 278.867 1205.09 279.973 1206.02 280.88C1206.98 281.76 1208.37 282.2 1210.18 282.2C1211.92 282.2 1213.28 281.773 1214.26 280.92C1215.28 280.04 1215.78 278.92 1215.78 277.56C1215.78 276.493 1215.49 275.627 1214.9 274.96C1214.32 274.293 1213.58 273.787 1212.7 273.44C1211.82 273.093 1210.64 272.72 1209.14 272.32C1207.3 271.84 1205.82 271.36 1204.7 270.88C1203.61 270.4 1202.66 269.653 1201.86 268.64C1201.09 267.6 1200.7 266.213 1200.7 264.48C1200.7 262.96 1201.09 261.613 1201.86 260.44C1202.64 259.267 1203.72 258.36 1205.1 257.72C1206.52 257.08 1208.13 256.76 1209.94 256.76C1212.56 256.76 1214.69 257.413 1216.34 258.72C1218.02 260.027 1218.97 261.76 1219.18 263.92H1215.18C1215.05 262.853 1214.49 261.92 1213.5 261.12C1212.52 260.293 1211.21 259.88 1209.58 259.88C1208.06 259.88 1206.82 260.28 1205.86 261.08C1204.9 261.853 1204.42 262.947 1204.42 264.36C1204.42 265.373 1204.7 266.2 1205.26 266.84C1205.85 267.48 1206.56 267.973 1207.38 268.32C1208.24 268.64 1209.42 269.013 1210.94 269.44C1212.78 269.947 1214.26 270.453 1215.38 270.96C1216.5 271.44 1217.46 272.2 1218.26 273.24C1219.06 274.253 1219.46 275.64 1219.46 277.4C1219.46 278.76 1219.1 280.04 1218.38 281.24C1217.66 282.44 1216.6 283.413 1215.18 284.16C1213.77 284.907 1212.1 285.28 1210.18 285.28ZM1230.86 266.08V279C1230.86 280.067 1231.09 280.827 1231.54 281.28C1231.99 281.707 1232.78 281.92 1233.9 281.92H1236.58V285H1233.3C1231.27 285 1229.75 284.533 1228.74 283.6C1227.73 282.667 1227.22 281.133 1227.22 279V266.08H1224.38V263.08H1227.22V257.56H1230.86V263.08H1236.58V266.08H1230.86ZM1252.15 285.36C1250.1 285.36 1248.23 284.893 1246.55 283.96C1244.9 283.027 1243.59 281.707 1242.63 280C1241.7 278.267 1241.23 276.267 1241.23 274C1241.23 271.76 1241.71 269.787 1242.67 268.08C1243.66 266.347 1244.99 265.027 1246.67 264.12C1248.35 263.187 1250.23 262.72 1252.31 262.72C1254.39 262.72 1256.27 263.187 1257.95 264.12C1259.63 265.027 1260.95 266.333 1261.91 268.04C1262.9 269.747 1263.39 271.733 1263.39 274C1263.39 276.267 1262.89 278.267 1261.87 280C1260.89 281.707 1259.54 283.027 1257.83 283.96C1256.13 284.893 1254.23 285.36 1252.15 285.36ZM1252.15 282.16C1253.46 282.16 1254.69 281.853 1255.83 281.24C1256.98 280.627 1257.9 279.707 1258.59 278.48C1259.31 277.253 1259.67 275.76 1259.67 274C1259.67 272.24 1259.33 270.747 1258.63 269.52C1257.94 268.293 1257.03 267.387 1255.91 266.8C1254.79 266.187 1253.58 265.88 1252.27 265.88C1250.94 265.88 1249.71 266.187 1248.59 266.8C1247.5 267.387 1246.62 268.293 1245.95 269.52C1245.29 270.747 1244.95 272.24 1244.95 274C1244.95 275.787 1245.27 277.293 1245.91 278.52C1246.58 279.747 1247.46 280.667 1248.55 281.28C1249.65 281.867 1250.85 282.16 1252.15 282.16ZM1273.42 266.64C1274.06 265.387 1274.96 264.413 1276.14 263.72C1277.34 263.027 1278.79 262.68 1280.5 262.68V266.44H1279.54C1275.46 266.44 1273.42 268.653 1273.42 273.08V285H1269.78V263.08H1273.42V266.64ZM1306.3 273.2C1306.3 273.893 1306.26 274.627 1306.18 275.4H1288.66C1288.79 277.56 1289.53 279.253 1290.86 280.48C1292.22 281.68 1293.86 282.28 1295.78 282.28C1297.35 282.28 1298.66 281.92 1299.7 281.2C1300.77 280.453 1301.51 279.467 1301.94 278.24H1305.86C1305.27 280.347 1304.1 282.067 1302.34 283.4C1300.58 284.707 1298.39 285.36 1295.78 285.36C1293.7 285.36 1291.83 284.893 1290.18 283.96C1288.55 283.027 1287.27 281.707 1286.34 280C1285.41 278.267 1284.94 276.267 1284.94 274C1284.94 271.733 1285.39 269.747 1286.3 268.04C1287.21 266.333 1288.47 265.027 1290.1 264.12C1291.75 263.187 1293.65 262.72 1295.78 262.72C1297.86 262.72 1299.7 263.173 1301.3 264.08C1302.9 264.987 1304.13 266.24 1304.98 267.84C1305.86 269.413 1306.3 271.2 1306.3 273.2ZM1302.54 272.44C1302.54 271.053 1302.23 269.867 1301.62 268.88C1301.01 267.867 1300.17 267.107 1299.1 266.6C1298.06 266.067 1296.9 265.8 1295.62 265.8C1293.78 265.8 1292.21 266.387 1290.9 267.56C1289.62 268.733 1288.89 270.36 1288.7 272.44H1302.54ZM1321.62 266.08H1317.02V285H1313.38V266.08H1310.54V263.08H1313.38V261.52C1313.38 259.067 1314.01 257.28 1315.26 256.16C1316.54 255.013 1318.58 254.44 1321.38 254.44V257.48C1319.78 257.48 1318.65 257.8 1317.98 258.44C1317.34 259.053 1317.02 260.08 1317.02 261.52V263.08H1321.62V266.08ZM1331.11 266.64C1331.75 265.387 1332.65 264.413 1333.83 263.72C1335.03 263.027 1336.48 262.68 1338.19 262.68V266.44H1337.23C1333.15 266.44 1331.11 268.653 1331.11 273.08V285H1327.47V263.08H1331.11V266.64ZM1353.55 285.36C1351.5 285.36 1349.63 284.893 1347.95 283.96C1346.3 283.027 1344.99 281.707 1344.03 280C1343.1 278.267 1342.63 276.267 1342.63 274C1342.63 271.76 1343.11 269.787 1344.07 268.08C1345.06 266.347 1346.39 265.027 1348.07 264.12C1349.75 263.187 1351.63 262.72 1353.71 262.72C1355.79 262.72 1357.67 263.187 1359.35 264.12C1361.03 265.027 1362.35 266.333 1363.31 268.04C1364.3 269.747 1364.79 271.733 1364.79 274C1364.79 276.267 1364.28 278.267 1363.27 280C1362.28 281.707 1360.94 283.027 1359.23 283.96C1357.52 284.893 1355.63 285.36 1353.55 285.36ZM1353.55 282.16C1354.86 282.16 1356.08 281.853 1357.23 281.24C1358.38 280.627 1359.3 279.707 1359.99 278.48C1360.71 277.253 1361.07 275.76 1361.07 274C1361.07 272.24 1360.72 270.747 1360.03 269.52C1359.34 268.293 1358.43 267.387 1357.31 266.8C1356.19 266.187 1354.98 265.88 1353.67 265.88C1352.34 265.88 1351.11 266.187 1349.99 266.8C1348.9 267.387 1348.02 268.293 1347.35 269.52C1346.68 270.747 1346.35 272.24 1346.35 274C1346.35 275.787 1346.67 277.293 1347.31 278.52C1347.98 279.747 1348.86 280.667 1349.95 281.28C1351.04 281.867 1352.24 282.16 1353.55 282.16ZM1381.86 262.68C1384.52 262.68 1386.68 263.493 1388.34 265.12C1389.99 266.72 1390.82 269.04 1390.82 272.08V285H1387.22V272.6C1387.22 270.413 1386.67 268.747 1385.58 267.6C1384.48 266.427 1382.99 265.84 1381.1 265.84C1379.18 265.84 1377.64 266.44 1376.5 267.64C1375.38 268.84 1374.82 270.587 1374.82 272.88V285H1371.18V263.08H1374.82V266.2C1375.54 265.08 1376.51 264.213 1377.74 263.6C1378.99 262.987 1380.36 262.68 1381.86 262.68ZM1402.8 266.08V279C1402.8 280.067 1403.03 280.827 1403.48 281.28C1403.94 281.707 1404.72 281.92 1405.84 281.92H1408.52V285H1405.24C1403.22 285 1401.7 284.533 1400.68 283.6C1399.67 282.667 1399.16 281.133 1399.16 279V266.08H1396.32V263.08H1399.16V257.56H1402.8V263.08H1408.52V266.08H1402.8Z" fill="black"/>
<rect width="1920" height="1080" transform="translate(435 350)" fill="#FF522D"/>
<rect x="435" y="350" width="1920" height="72" fill="#8C3522"/>
<circle cx="482" cy="386" r="20" fill="#FF5951"/>
<circle cx="549" cy="386" r="20" fill="#FFBC2D"/>
<circle cx="616" cy="386" r="20" fill="#5EB16C"/>
<path d="M1276.01 372.12L1266.93 389.48V400H1263.29V389.48L1254.17 372.12H1258.21L1265.09 386.24L1271.97 372.12H1276.01ZM1291.01 400.36C1288.95 400.36 1287.09 399.893 1285.41 398.96C1283.75 398.027 1282.45 396.707 1281.49 395C1280.55 393.267 1280.09 391.267 1280.09 389C1280.09 386.76 1280.57 384.787 1281.53 383.08C1282.51 381.347 1283.85 380.027 1285.53 379.12C1287.21 378.187 1289.09 377.72 1291.17 377.72C1293.25 377.72 1295.13 378.187 1296.81 379.12C1298.49 380.027 1299.81 381.333 1300.77 383.04C1301.75 384.747 1302.25 386.733 1302.25 389C1302.25 391.267 1301.74 393.267 1300.73 395C1299.74 396.707 1298.39 398.027 1296.69 398.96C1294.98 399.893 1293.09 400.36 1291.01 400.36ZM1291.01 397.16C1292.31 397.16 1293.54 396.853 1294.69 396.24C1295.83 395.627 1296.75 394.707 1297.45 393.48C1298.17 392.253 1298.53 390.76 1298.53 389C1298.53 387.24 1298.18 385.747 1297.49 384.52C1296.79 383.293 1295.89 382.387 1294.77 381.8C1293.65 381.187 1292.43 380.88 1291.13 380.88C1289.79 380.88 1288.57 381.187 1287.45 381.8C1286.35 382.387 1285.47 383.293 1284.81 384.52C1284.14 385.747 1283.81 387.24 1283.81 389C1283.81 390.787 1284.13 392.293 1284.77 393.52C1285.43 394.747 1286.31 395.667 1287.41 396.28C1288.5 396.867 1289.7 397.16 1291.01 397.16ZM1328.07 378.08V400H1324.43V396.76C1323.74 397.88 1322.77 398.76 1321.51 399.4C1320.29 400.013 1318.93 400.32 1317.43 400.32C1315.73 400.32 1314.19 399.973 1312.83 399.28C1311.47 398.56 1310.39 397.493 1309.59 396.08C1308.82 394.667 1308.43 392.947 1308.43 390.92V378.08H1312.03V390.44C1312.03 392.6 1312.58 394.267 1313.67 395.44C1314.77 396.587 1316.26 397.16 1318.15 397.16C1320.1 397.16 1321.63 396.56 1322.75 395.36C1323.87 394.16 1324.43 392.413 1324.43 390.12V378.08H1328.07ZM1339.46 381.64C1340.1 380.387 1341.01 379.413 1342.18 378.72C1343.38 378.027 1344.83 377.68 1346.54 377.68V381.44H1345.58C1341.5 381.44 1339.46 383.653 1339.46 388.08V400H1335.82V378.08H1339.46V381.64ZM1383.25 380.28C1383.25 382.6 1382.45 384.533 1380.85 386.08C1379.27 387.6 1376.86 388.36 1373.61 388.36H1368.25V400H1364.61V372.12H1373.61C1376.75 372.12 1379.14 372.88 1380.77 374.4C1382.42 375.92 1383.25 377.88 1383.25 380.28ZM1373.61 385.36C1375.63 385.36 1377.13 384.92 1378.09 384.04C1379.05 383.16 1379.53 381.907 1379.53 380.28C1379.53 376.84 1377.55 375.12 1373.61 375.12H1368.25V385.36H1373.61ZM1398.93 400.36C1396.88 400.36 1395.01 399.893 1393.33 398.96C1391.68 398.027 1390.37 396.707 1389.41 395C1388.48 393.267 1388.01 391.267 1388.01 389C1388.01 386.76 1388.49 384.787 1389.45 383.08C1390.44 381.347 1391.77 380.027 1393.45 379.12C1395.13 378.187 1397.01 377.72 1399.09 377.72C1401.17 377.72 1403.05 378.187 1404.73 379.12C1406.41 380.027 1407.73 381.333 1408.69 383.04C1409.68 384.747 1410.17 386.733 1410.17 389C1410.17 391.267 1409.66 393.267 1408.65 395C1407.66 396.707 1406.32 398.027 1404.61 398.96C1402.9 399.893 1401.01 400.36 1398.93 400.36ZM1398.93 397.16C1400.24 397.16 1401.46 396.853 1402.61 396.24C1403.76 395.627 1404.68 394.707 1405.37 393.48C1406.09 392.253 1406.45 390.76 1406.45 389C1406.45 387.24 1406.1 385.747 1405.41 384.52C1404.72 383.293 1403.81 382.387 1402.69 381.8C1401.57 381.187 1400.36 380.88 1399.05 380.88C1397.72 380.88 1396.49 381.187 1395.37 381.8C1394.28 382.387 1393.4 383.293 1392.73 384.52C1392.06 385.747 1391.73 387.24 1391.73 389C1391.73 390.787 1392.05 392.293 1392.69 393.52C1393.36 394.747 1394.24 395.667 1395.33 396.28C1396.42 396.867 1397.62 397.16 1398.93 397.16ZM1420.2 381.64C1420.84 380.387 1421.74 379.413 1422.92 378.72C1424.12 378.027 1425.57 377.68 1427.28 377.68V381.44H1426.32C1422.24 381.44 1420.2 383.653 1420.2 388.08V400H1416.56V378.08H1420.2V381.64ZM1437.52 381.08V394C1437.52 395.067 1437.74 395.827 1438.2 396.28C1438.65 396.707 1439.44 396.92 1440.56 396.92H1443.24V400H1439.96C1437.93 400 1436.41 399.533 1435.4 398.6C1434.38 397.667 1433.88 396.133 1433.88 394V381.08H1431.04V378.08H1433.88V372.56H1437.52V378.08H1443.24V381.08H1437.52ZM1458.17 381.08H1453.57V400H1449.93V381.08H1447.09V378.08H1449.93V376.52C1449.93 374.067 1450.55 372.28 1451.81 371.16C1453.09 370.013 1455.13 369.44 1457.93 369.44V372.48C1456.33 372.48 1455.19 372.8 1454.53 373.44C1453.89 374.053 1453.57 375.08 1453.57 376.52V378.08H1458.17V381.08ZM1473.57 400.36C1471.52 400.36 1469.65 399.893 1467.97 398.96C1466.32 398.027 1465.01 396.707 1464.05 395C1463.12 393.267 1462.65 391.267 1462.65 389C1462.65 386.76 1463.13 384.787 1464.09 383.08C1465.08 381.347 1466.41 380.027 1468.09 379.12C1469.77 378.187 1471.65 377.72 1473.73 377.72C1475.81 377.72 1477.69 378.187 1479.37 379.12C1481.05 380.027 1482.37 381.333 1483.33 383.04C1484.32 384.747 1484.81 386.733 1484.81 389C1484.81 391.267 1484.31 393.267 1483.29 395C1482.31 396.707 1480.96 398.027 1479.25 398.96C1477.55 399.893 1475.65 400.36 1473.57 400.36ZM1473.57 397.16C1474.88 397.16 1476.11 396.853 1477.25 396.24C1478.4 395.627 1479.32 394.707 1480.01 393.48C1480.73 392.253 1481.09 390.76 1481.09 389C1481.09 387.24 1480.75 385.747 1480.05 384.52C1479.36 383.293 1478.45 382.387 1477.33 381.8C1476.21 381.187 1475 380.88 1473.69 380.88C1472.36 380.88 1471.13 381.187 1470.01 381.8C1468.92 382.387 1468.04 383.293 1467.37 384.52C1466.71 385.747 1466.37 387.24 1466.37 389C1466.37 390.787 1466.69 392.293 1467.33 393.52C1468 394.747 1468.88 395.667 1469.97 396.28C1471.07 396.867 1472.27 397.16 1473.57 397.16ZM1494.84 370.4V400H1491.2V370.4H1494.84ZM1504.52 374.52C1503.83 374.52 1503.24 374.28 1502.76 373.8C1502.28 373.32 1502.04 372.733 1502.04 372.04C1502.04 371.347 1502.28 370.76 1502.76 370.28C1503.24 369.8 1503.83 369.56 1504.52 369.56C1505.19 369.56 1505.75 369.8 1506.2 370.28C1506.68 370.76 1506.92 371.347 1506.92 372.04C1506.92 372.733 1506.68 373.32 1506.2 373.8C1505.75 374.28 1505.19 374.52 1504.52 374.52ZM1506.28 378.08V400H1502.64V378.08H1506.28ZM1523.65 400.36C1521.59 400.36 1519.73 399.893 1518.05 398.96C1516.39 398.027 1515.09 396.707 1514.13 395C1513.19 393.267 1512.73 391.267 1512.73 389C1512.73 386.76 1513.21 384.787 1514.17 383.08C1515.15 381.347 1516.49 380.027 1518.17 379.12C1519.85 378.187 1521.73 377.72 1523.81 377.72C1525.89 377.72 1527.77 378.187 1529.45 379.12C1531.13 380.027 1532.45 381.333 1533.41 383.04C1534.39 384.747 1534.89 386.733 1534.89 389C1534.89 391.267 1534.38 393.267 1533.37 395C1532.38 396.707 1531.03 398.027 1529.33 398.96C1527.62 399.893 1525.73 400.36 1523.65 400.36ZM1523.65 397.16C1524.95 397.16 1526.18 396.853 1527.33 396.24C1528.47 395.627 1529.39 394.707 1530.09 393.48C1530.81 392.253 1531.17 390.76 1531.17 389C1531.17 387.24 1530.82 385.747 1530.13 384.52C1529.43 383.293 1528.53 382.387 1527.41 381.8C1526.29 381.187 1525.07 380.88 1523.77 380.88C1522.43 380.88 1521.21 381.187 1520.09 381.8C1518.99 382.387 1518.11 383.293 1517.45 384.52C1516.78 385.747 1516.45 387.24 1516.45 389C1516.45 390.787 1516.77 392.293 1517.41 393.52C1518.07 394.747 1518.95 395.667 1520.05 396.28C1521.14 396.867 1522.34 397.16 1523.65 397.16Z" fill="black"/>
<rect width="1920" height="1080" transform="translate(580 465)" fill="white"/>
<rect x="580" y="465" width="1920" height="72" fill="#D9D9D9"/>
<circle cx="627" cy="501" r="20" fill="#FF5951"/>
<circle cx="694" cy="501" r="20" fill="#FFBC2D"/>
<circle cx="761" cy="501" r="20" fill="#5EB16C"/>
<path d="M1461.6 487.12L1452.52 504.48V515H1448.88V504.48L1439.76 487.12H1443.8L1450.68 501.24L1457.56 487.12H1461.6ZM1476.6 515.36C1474.55 515.36 1472.68 514.893 1471 513.96C1469.35 513.027 1468.04 511.707 1467.08 510C1466.15 508.267 1465.68 506.267 1465.68 504C1465.68 501.76 1466.16 499.787 1467.12 498.08C1468.11 496.347 1469.44 495.027 1471.12 494.12C1472.8 493.187 1474.68 492.72 1476.76 492.72C1478.84 492.72 1480.72 493.187 1482.4 494.12C1484.08 495.027 1485.4 496.333 1486.36 498.04C1487.35 499.747 1487.84 501.733 1487.84 504C1487.84 506.267 1487.33 508.267 1486.32 510C1485.33 511.707 1483.99 513.027 1482.28 513.96C1480.57 514.893 1478.68 515.36 1476.6 515.36ZM1476.6 512.16C1477.91 512.16 1479.13 511.853 1480.28 511.24C1481.43 510.627 1482.35 509.707 1483.04 508.48C1483.76 507.253 1484.12 505.76 1484.12 504C1484.12 502.24 1483.77 500.747 1483.08 499.52C1482.39 498.293 1481.48 497.387 1480.36 496.8C1479.24 496.187 1478.03 495.88 1476.72 495.88C1475.39 495.88 1474.16 496.187 1473.04 496.8C1471.95 497.387 1471.07 498.293 1470.4 499.52C1469.73 500.747 1469.4 502.24 1469.4 504C1469.4 505.787 1469.72 507.293 1470.36 508.52C1471.03 509.747 1471.91 510.667 1473 511.28C1474.09 511.867 1475.29 512.16 1476.6 512.16ZM1513.67 493.08V515H1510.03V511.76C1509.33 512.88 1508.36 513.76 1507.11 514.4C1505.88 515.013 1504.52 515.32 1503.03 515.32C1501.32 515.32 1499.79 514.973 1498.43 514.28C1497.07 513.56 1495.99 512.493 1495.19 511.08C1494.41 509.667 1494.03 507.947 1494.03 505.92V493.08H1497.63V505.44C1497.63 507.6 1498.17 509.267 1499.27 510.44C1500.36 511.587 1501.85 512.16 1503.75 512.16C1505.69 512.16 1507.23 511.56 1508.35 510.36C1509.47 509.16 1510.03 507.413 1510.03 505.12V493.08H1513.67ZM1525.05 496.64C1525.69 495.387 1526.6 494.413 1527.77 493.72C1528.97 493.027 1530.42 492.68 1532.13 492.68V496.44H1531.17C1527.09 496.44 1525.05 498.653 1525.05 503.08V515H1521.41V493.08H1525.05V496.64ZM1553.84 487.12V515H1550.2V487.12H1553.84ZM1560.28 503.96C1560.28 501.72 1560.73 499.76 1561.64 498.08C1562.55 496.373 1563.79 495.053 1565.36 494.12C1566.96 493.187 1568.75 492.72 1570.72 492.72C1572.43 492.72 1574.01 493.12 1575.48 493.92C1576.95 494.693 1578.07 495.72 1578.84 497V485.4H1582.52V515H1578.84V510.88C1578.12 512.187 1577.05 513.267 1575.64 514.12C1574.23 514.947 1572.57 515.36 1570.68 515.36C1568.73 515.36 1566.96 514.88 1565.36 513.92C1563.79 512.96 1562.55 511.613 1561.64 509.88C1560.73 508.147 1560.28 506.173 1560.28 503.96ZM1578.84 504C1578.84 502.347 1578.51 500.907 1577.84 499.68C1577.17 498.453 1576.27 497.52 1575.12 496.88C1574 496.213 1572.76 495.88 1571.4 495.88C1570.04 495.88 1568.8 496.2 1567.68 496.84C1566.56 497.48 1565.67 498.413 1565 499.64C1564.33 500.867 1564 502.307 1564 503.96C1564 505.64 1564.33 507.107 1565 508.36C1565.67 509.587 1566.56 510.533 1567.68 511.2C1568.8 511.84 1570.04 512.16 1571.4 512.16C1572.76 512.16 1574 511.84 1575.12 511.2C1576.27 510.533 1577.17 509.587 1577.84 508.36C1578.51 507.107 1578.84 505.653 1578.84 504ZM1610.27 503.2C1610.27 503.893 1610.23 504.627 1610.15 505.4H1592.63C1592.77 507.56 1593.5 509.253 1594.83 510.48C1596.19 511.68 1597.83 512.28 1599.75 512.28C1601.33 512.28 1602.63 511.92 1603.67 511.2C1604.74 510.453 1605.49 509.467 1605.91 508.24H1609.83C1609.25 510.347 1608.07 512.067 1606.31 513.4C1604.55 514.707 1602.37 515.36 1599.75 515.36C1597.67 515.36 1595.81 514.893 1594.15 513.96C1592.53 513.027 1591.25 511.707 1590.31 510C1589.38 508.267 1588.91 506.267 1588.91 504C1588.91 501.733 1589.37 499.747 1590.27 498.04C1591.18 496.333 1592.45 495.027 1594.07 494.12C1595.73 493.187 1597.62 492.72 1599.75 492.72C1601.83 492.72 1603.67 493.173 1605.27 494.08C1606.87 494.987 1608.1 496.24 1608.95 497.84C1609.83 499.413 1610.27 501.2 1610.27 503.2ZM1606.51 502.44C1606.51 501.053 1606.21 499.867 1605.59 498.88C1604.98 497.867 1604.14 497.107 1603.07 496.6C1602.03 496.067 1600.87 495.8 1599.59 495.8C1597.75 495.8 1596.18 496.387 1594.87 497.56C1593.59 498.733 1592.86 500.36 1592.67 502.44H1606.51ZM1615.32 503.96C1615.32 501.72 1615.77 499.76 1616.68 498.08C1617.58 496.373 1618.82 495.053 1620.4 494.12C1622 493.187 1623.77 492.72 1625.72 492.72C1627.64 492.72 1629.3 493.133 1630.72 493.96C1632.13 494.787 1633.18 495.827 1633.88 497.08V493.08H1637.56V515H1633.88V510.92C1633.16 512.2 1632.08 513.267 1630.64 514.12C1629.22 514.947 1627.57 515.36 1625.68 515.36C1623.73 515.36 1621.97 514.88 1620.4 513.92C1618.82 512.96 1617.58 511.613 1616.68 509.88C1615.77 508.147 1615.32 506.173 1615.32 503.96ZM1633.88 504C1633.88 502.347 1633.54 500.907 1632.88 499.68C1632.21 498.453 1631.3 497.52 1630.16 496.88C1629.04 496.213 1627.8 495.88 1626.44 495.88C1625.08 495.88 1623.84 496.2 1622.72 496.84C1621.6 497.48 1620.7 498.413 1620.04 499.64C1619.37 500.867 1619.04 502.307 1619.04 503.96C1619.04 505.64 1619.37 507.107 1620.04 508.36C1620.7 509.587 1621.6 510.533 1622.72 511.2C1623.84 511.84 1625.08 512.16 1626.44 512.16C1627.8 512.16 1629.04 511.84 1630.16 511.2C1631.3 510.533 1632.21 509.587 1632.88 508.36C1633.54 507.107 1633.88 505.653 1633.88 504Z" fill="black"/>
</svg>
